<svg width="216" height="64" viewBox="0 0 216 64" fill="none" xmlns="http://www.w3.org/2000/svg">
    <g clip-path="url(#clip0_129_8408)">
        <path d="M208.315 64H7.5664C3.3952 64 0 60.5952 0 56.4272V7.5616C0 3.392 3.3952 0 7.5664 0H208.315C212.485 0 216 3.392 216 7.5616V56.4272C216 60.5952 212.485 64 208.315 64Z" fill="#A6A6A6"/>
        <path d="M214.451 56.4267C214.451 59.8123 211.709 62.5547 208.317 62.5547H7.56623C4.17583 62.5547 1.42383 59.8123 1.42383 56.4267V7.55788C1.42383 4.17388 4.17583 1.42188 7.56623 1.42188H208.315C211.709 1.42188 214.449 4.17388 214.449 7.55788L214.451 56.4267Z" fill="black"/>
        <path d="M48.2045 31.65C48.1581 26.4932 52.427 23.9844 52.6222 23.8676C50.2045 20.3428 46.4573 19.8612 45.1405 19.8228C41.9933 19.4916 38.9405 21.706 37.3374 21.706C35.7022 21.706 33.2333 19.8548 30.5725 19.9092C27.1485 19.962 23.9453 21.9444 22.1885 25.0228C18.5629 31.2996 21.267 40.5236 24.7406 45.5972C26.4782 48.082 28.5085 50.8564 31.1662 50.7588C33.7662 50.6516 34.7374 49.1012 37.875 49.1012C40.9838 49.1012 41.8958 50.7588 44.6061 50.6964C47.3965 50.6516 49.1533 48.2004 50.8301 45.6932C52.8382 42.8452 53.6446 40.0404 53.6766 39.8964C53.611 39.874 48.2574 37.8308 48.2045 31.65Z" fill="white"/>
        <path d="M43.0843 16.4877C44.4827 14.7389 45.4395 12.3597 45.1739 9.94531C43.1499 10.0349 40.6187 11.3453 39.1611 13.0557C37.8715 14.5629 36.7195 17.0333 37.0171 19.3565C39.2907 19.5261 41.6251 18.2093 43.0843 16.4877Z" fill="white"/>
        <path d="M85.8324 50.41H82.1988L80.2084 44.1556H73.29L71.394 50.41H67.8564L74.7108 29.1172H78.9444L85.8324 50.41ZM79.6084 41.5316L77.8084 35.9716C77.618 35.4036 77.2612 34.066 76.7348 31.9604H76.6708C76.4612 32.866 76.1236 34.2036 75.6596 35.9716L73.8916 41.5316H79.6084Z" fill="white"/>
        <path d="M103.459 42.5454C103.459 45.1566 102.754 47.2206 101.343 48.7358C100.079 50.0846 98.509 50.7582 96.6354 50.7582C94.613 50.7582 93.1602 50.0318 92.2754 48.579H92.2114V56.667H88.8002V40.1118C88.8002 38.4702 88.757 36.7854 88.6738 35.0574H91.6738L91.8642 37.491H91.9282C93.0658 35.6574 94.7922 34.7422 97.109 34.7422C98.9202 34.7422 100.432 35.4574 101.642 36.8894C102.855 38.323 103.459 40.2078 103.459 42.5454ZM99.9842 42.6702C99.9842 41.1758 99.6482 39.9438 98.973 38.9742C98.2354 37.963 97.245 37.4574 96.0034 37.4574C95.1618 37.4574 94.397 37.739 93.7138 38.2942C93.029 38.8542 92.581 39.5854 92.3714 40.491C92.2658 40.9134 92.213 41.259 92.213 41.531V44.091C92.213 45.2078 92.5554 46.1502 93.2402 46.9198C93.925 47.6894 94.8146 48.0734 95.909 48.0734C97.1938 48.0734 98.1938 47.5774 98.909 46.5886C99.6258 45.5982 99.9842 44.2926 99.9842 42.6702Z" fill="white"/>
        <path d="M121.119 42.5454C121.119 45.1566 120.413 47.2206 119.001 48.7358C117.738 50.0846 116.169 50.7582 114.295 50.7582C112.273 50.7582 110.82 50.0318 109.937 48.579H109.873V56.667H106.461V40.1118C106.461 38.4702 106.418 36.7854 106.335 35.0574H109.335L109.525 37.491H109.589C110.725 35.6574 112.452 34.7422 114.77 34.7422C116.58 34.7422 118.092 35.4574 119.305 36.8894C120.513 38.323 121.119 40.2078 121.119 42.5454ZM117.644 42.6702C117.644 41.1758 117.306 39.9438 116.631 38.9742C115.893 37.963 114.906 37.4574 113.663 37.4574C112.82 37.4574 112.057 37.739 111.372 38.2942C110.687 38.8542 110.241 39.5854 110.031 40.491C109.927 40.9134 109.873 41.259 109.873 41.531V44.091C109.873 45.2078 110.215 46.1502 110.897 46.9198C111.581 47.6878 112.471 48.0734 113.569 48.0734C114.853 48.0734 115.853 47.5774 116.569 46.5886C117.285 45.5982 117.644 44.2926 117.644 42.6702Z" fill="white"/>
        <path d="M140.863 44.4383C140.863 46.2495 140.234 47.7231 138.972 48.8607C137.585 50.1039 135.653 50.7247 133.172 50.7247C130.881 50.7247 129.044 50.2831 127.653 49.3983L128.444 46.5551C129.941 47.4607 131.585 47.9151 133.375 47.9151C134.66 47.9151 135.66 47.6239 136.378 47.0447C137.093 46.4655 137.45 45.6879 137.45 44.7183C137.45 43.8543 137.156 43.1263 136.565 42.5359C135.978 41.9455 134.997 41.3967 133.628 40.8895C129.9 39.4991 128.037 37.4623 128.037 34.7839C128.037 33.0335 128.69 31.5983 129.997 30.4815C131.3 29.3631 133.037 28.8047 135.21 28.8047C137.148 28.8047 138.757 29.1423 140.042 29.8159L139.189 32.5967C137.989 31.9439 136.633 31.6175 135.114 31.6175C133.914 31.6175 132.977 31.9135 132.305 32.5023C131.737 33.0287 131.452 33.6703 131.452 34.4303C131.452 35.2719 131.777 35.9679 132.429 36.5151C132.997 37.0207 134.029 37.5679 135.527 38.1583C137.359 38.8959 138.705 39.7583 139.57 40.7471C140.433 41.7327 140.863 42.9663 140.863 44.4383Z" fill="white"/>
        <path d="M152.141 37.6122H148.381V45.0666C148.381 46.9626 149.044 47.9098 150.372 47.9098C150.981 47.9098 151.487 47.857 151.887 47.7514L151.981 50.3418C151.309 50.593 150.425 50.7194 149.329 50.7194C147.981 50.7194 146.929 50.3082 146.169 49.4874C145.412 48.665 145.031 47.2858 145.031 45.3482V37.609H142.791V35.049H145.031V32.2378L148.381 31.2266V35.049H152.141V37.6122Z" fill="white"/>
        <path d="M169.106 42.6062C169.106 44.9662 168.431 46.9038 167.083 48.419C165.671 49.979 163.795 50.7566 161.458 50.7566C159.205 50.7566 157.411 50.0094 156.074 48.515C154.736 47.0206 154.067 45.1342 154.067 42.8606C154.067 40.4814 154.755 38.5326 156.136 37.0174C157.514 35.5006 159.373 34.7422 161.711 34.7422C163.963 34.7422 165.776 35.4894 167.144 36.9854C168.453 38.4366 169.106 40.3102 169.106 42.6062ZM165.567 42.7166C165.567 41.3006 165.264 40.0862 164.651 39.0734C163.936 37.8478 162.914 37.2366 161.589 37.2366C160.218 37.2366 159.176 37.8494 158.461 39.0734C157.848 40.0878 157.546 41.3214 157.546 42.7806C157.546 44.1966 157.848 45.411 158.461 46.4222C159.199 47.6478 160.229 48.259 161.559 48.259C162.861 48.259 163.883 47.635 164.621 46.3902C165.25 45.3582 165.567 44.131 165.567 42.7166Z" fill="white"/>
        <path d="M180.194 38.0574C179.856 37.995 179.496 37.963 179.119 37.963C177.919 37.963 176.991 38.4158 176.338 39.323C175.77 40.123 175.485 41.1342 175.485 42.355V50.411H172.075L172.107 39.8926C172.107 38.123 172.064 36.5118 171.979 35.059H174.951L175.075 37.9966H175.17C175.53 36.987 176.098 36.1742 176.875 35.5646C177.635 35.0158 178.456 34.7422 179.341 34.7422C179.656 34.7422 179.941 34.7646 180.194 34.8046V38.0574Z" fill="white"/>
        <path d="M195.45 42.0053C195.45 42.6165 195.41 43.1317 195.326 43.5525H185.092C185.132 45.0693 185.626 46.2293 186.577 47.0293C187.439 47.7445 188.554 48.1029 189.924 48.1029C191.439 48.1029 192.822 47.8613 194.065 47.3765L194.599 49.7445C193.146 50.3781 191.431 50.6933 189.452 50.6933C187.071 50.6933 185.202 49.9925 183.842 48.5925C182.486 47.1925 181.806 45.3125 181.806 42.9541C181.806 40.6389 182.438 38.7109 183.703 37.1733C185.028 35.5317 186.818 34.7109 189.071 34.7109C191.284 34.7109 192.959 35.5317 194.097 37.1733C194.998 38.4773 195.45 40.0901 195.45 42.0053ZM192.198 41.1205C192.22 40.1093 191.998 39.2357 191.535 38.4981C190.945 37.5493 190.038 37.0757 188.817 37.0757C187.702 37.0757 186.794 37.5381 186.102 38.4661C185.534 39.2037 185.196 40.0885 185.092 41.1189L192.198 41.1205Z" fill="white"/>
        <path d="M78.4802 16.0139C78.4802 17.8971 77.9154 19.3147 76.7874 20.2667C75.7426 21.1451 74.2578 21.5851 72.3346 21.5851C71.381 21.5851 70.565 21.5435 69.8818 21.4603V11.1707C70.773 11.0267 71.733 10.9531 72.7698 10.9531C74.6018 10.9531 75.9826 11.3515 76.9138 12.1483C77.957 13.0491 78.4802 14.3371 78.4802 16.0139ZM76.7122 16.0603C76.7122 14.8395 76.389 13.9035 75.7426 13.2507C75.0962 12.5995 74.1522 12.2731 72.909 12.2731C72.381 12.2731 71.9314 12.3083 71.5586 12.3819V20.2043C71.765 20.2363 72.1426 20.2507 72.6914 20.2507C73.9746 20.2507 74.965 19.8939 75.6626 19.1803C76.3602 18.4667 76.7122 17.4267 76.7122 16.0603Z" fill="white"/>
        <path d="M87.855 17.6593C87.855 18.8193 87.5238 19.7697 86.8614 20.5153C86.167 21.2817 85.247 21.6641 84.0982 21.6641C82.991 21.6641 82.1094 21.2977 81.4518 20.5617C80.7958 19.8273 80.4678 18.9009 80.4678 17.7841C80.4678 16.6161 80.8054 15.6577 81.4838 14.9137C82.1622 14.1697 83.0742 13.7969 84.223 13.7969C85.3302 13.7969 86.2198 14.1633 86.8934 14.8977C87.5334 15.6113 87.855 16.5329 87.855 17.6593ZM86.1158 17.7137C86.1158 17.0177 85.9654 16.4209 85.6662 15.9233C85.3142 15.3217 84.8134 15.0209 84.1622 15.0209C83.4886 15.0209 82.9766 15.3217 82.6246 15.9233C82.3238 16.4209 82.175 17.0273 82.175 17.7441C82.175 18.4401 82.3254 19.0369 82.6246 19.5345C82.9878 20.1361 83.4934 20.4369 84.1462 20.4369C84.7862 20.4369 85.2886 20.1313 85.6502 19.5185C85.9606 19.0113 86.1158 18.4097 86.1158 17.7137Z" fill="white"/>
        <path d="M100.424 13.9531L98.0641 21.4955H96.5281L95.5505 18.2203C95.3025 17.4027 95.1009 16.5899 94.9441 15.7835H94.9137C94.7681 16.6123 94.5665 17.4235 94.3073 18.2203L93.2689 21.4955H91.7153L89.4961 13.9531H91.2193L92.0721 17.5387C92.2785 18.3867 92.4481 19.1947 92.5841 19.9595H92.6145C92.7393 19.3291 92.9457 18.5259 93.2369 17.5547L94.3073 13.9547H95.6737L96.6993 17.4779C96.9473 18.3371 97.1489 19.1643 97.3041 19.9611H97.3505C97.4641 19.1851 97.6353 18.3579 97.8625 17.4779L98.7777 13.9547H100.424V13.9531Z" fill="white"/>
        <path d="M109.117 21.4977H107.44V17.1777C107.44 15.8465 106.935 15.1809 105.92 15.1809C105.423 15.1809 105.021 15.3633 104.709 15.7297C104.4 16.0961 104.243 16.5281 104.243 17.0225V21.4961H102.567V16.1105C102.567 15.4481 102.546 14.7297 102.506 13.9521H103.979L104.058 15.1313H104.104C104.299 14.7649 104.591 14.4625 104.973 14.2209C105.427 13.9393 105.936 13.7969 106.493 13.7969C107.197 13.7969 107.783 14.0241 108.248 14.4801C108.827 15.0385 109.117 15.8721 109.117 16.9793V21.4977Z" fill="white"/>
        <path d="M113.741 21.4954H112.065V10.4922H113.741V21.4954Z" fill="white"/>
        <path d="M123.613 17.6593C123.613 18.8193 123.282 19.7697 122.619 20.5153C121.925 21.2817 121.003 21.6641 119.856 21.6641C118.747 21.6641 117.866 21.2977 117.21 20.5617C116.554 19.8273 116.226 18.9009 116.226 17.7841C116.226 16.6161 116.563 15.6577 117.242 14.9137C117.92 14.1697 118.832 13.7969 119.979 13.7969C121.088 13.7969 121.976 14.1633 122.651 14.8977C123.291 15.6113 123.613 16.5329 123.613 17.6593ZM121.872 17.7137C121.872 17.0177 121.722 16.4209 121.422 15.9233C121.072 15.3217 120.57 15.0209 119.92 15.0209C119.245 15.0209 118.733 15.3217 118.382 15.9233C118.082 16.4209 117.933 17.0273 117.933 17.7441C117.933 18.4401 118.083 19.0369 118.382 19.5345C118.746 20.1361 119.251 20.4369 119.904 20.4369C120.544 20.4369 121.045 20.1313 121.406 19.5185C121.718 19.0113 121.872 18.4097 121.872 17.7137Z" fill="white"/>
        <path d="M131.728 21.4929H130.223L130.098 20.6241H130.051C129.536 21.3169 128.802 21.6641 127.848 21.6641C127.136 21.6641 126.56 21.4353 126.127 20.9809C125.733 20.5681 125.536 20.0545 125.536 19.4449C125.536 18.5233 125.92 17.8209 126.693 17.3345C127.464 16.8481 128.549 16.6097 129.946 16.6209V16.4801C129.946 15.4865 129.424 14.9905 128.379 14.9905C127.635 14.9905 126.979 15.1777 126.413 15.5489L126.072 14.4481C126.773 14.0145 127.639 13.7969 128.659 13.7969C130.631 13.7969 131.619 14.8369 131.619 16.9169V19.6945C131.619 20.4481 131.656 21.0481 131.728 21.4929ZM129.987 18.9009V17.7377C128.138 17.7057 127.213 18.2129 127.213 19.2577C127.213 19.6513 127.319 19.9457 127.535 20.1425C127.751 20.3393 128.026 20.4369 128.354 20.4369C128.722 20.4369 129.066 20.3201 129.379 20.0881C129.695 19.8545 129.888 19.5585 129.96 19.1953C129.978 19.1137 129.987 19.0145 129.987 18.9009Z" fill="white"/>
        <path d="M141.257 21.4954H139.769L139.69 20.2842H139.644C139.169 21.2058 138.359 21.6666 137.221 21.6666C136.313 21.6666 135.556 21.3098 134.956 20.5962C134.356 19.8826 134.057 18.9562 134.057 17.8186C134.057 16.5978 134.381 15.609 135.034 14.8538C135.666 14.1498 136.441 13.7978 137.362 13.7978C138.375 13.7978 139.084 14.1386 139.487 14.8218H139.519V10.4922H141.197V19.4634C141.197 20.1978 141.217 20.8746 141.257 21.4954ZM139.519 18.3146V17.057C139.519 16.8394 139.503 16.6634 139.473 16.529C139.378 16.1258 139.175 15.7866 138.866 15.513C138.554 15.2394 138.178 15.1018 137.745 15.1018C137.119 15.1018 136.629 15.3498 136.269 15.8474C135.913 16.345 135.732 16.9802 135.732 17.7562C135.732 18.5018 135.903 19.1066 136.247 19.5722C136.61 20.0682 137.1 20.3162 137.713 20.3162C138.263 20.3162 138.703 20.1098 139.037 19.6954C139.361 19.313 139.519 18.8522 139.519 18.3146Z" fill="white"/>
        <path d="M155.597 17.6593C155.597 18.8193 155.266 19.7697 154.604 20.5153C153.909 21.2817 152.991 21.6641 151.84 21.6641C150.735 21.6641 149.853 21.2977 149.194 20.5617C148.538 19.8273 148.21 18.9009 148.21 17.7841C148.21 16.6161 148.548 15.6577 149.226 14.9137C149.904 14.1697 150.816 13.7969 151.967 13.7969C153.072 13.7969 153.964 14.1633 154.636 14.8977C155.276 15.6113 155.597 16.5329 155.597 17.6593ZM153.86 17.7137C153.86 17.0177 153.709 16.4209 153.41 15.9233C153.056 15.3217 152.557 15.0209 151.904 15.0209C151.232 15.0209 150.72 15.3217 150.367 15.9233C150.066 16.4209 149.917 17.0273 149.917 17.7441C149.917 18.4401 150.068 19.0369 150.367 19.5345C150.73 20.1361 151.236 20.4369 151.888 20.4369C152.528 20.4369 153.032 20.1313 153.394 19.5185C153.703 19.0113 153.86 18.4097 153.86 17.7137Z" fill="white"/>
        <path d="M164.614 21.4977H162.938V17.1777C162.938 15.8465 162.433 15.1809 161.417 15.1809C160.919 15.1809 160.518 15.3633 160.207 15.7297C159.897 16.0961 159.742 16.5281 159.742 17.0225V21.4961H158.063V16.1105C158.063 15.4481 158.044 14.7297 158.004 13.9521H159.476L159.554 15.1313H159.601C159.798 14.7649 160.089 14.4625 160.47 14.2209C160.926 13.9393 161.433 13.7969 161.991 13.7969C162.694 13.7969 163.279 14.0241 163.745 14.4801C164.326 15.0385 164.614 15.8721 164.614 16.9793V21.4977Z" fill="white"/>
        <path d="M175.898 15.2125H174.052V18.8765C174.052 19.8077 174.38 20.2733 175.029 20.2733C175.33 20.2733 175.58 20.2477 175.777 20.1949L175.82 21.4669C175.489 21.5917 175.053 21.6541 174.517 21.6541C173.855 21.6541 173.34 21.4525 172.967 21.0493C172.593 20.6461 172.407 19.9677 172.407 19.0157V15.2125H171.305V13.9565H172.407V12.5741L174.05 12.0781V13.9549H175.897L175.898 15.2125Z" fill="white"/>
        <path d="M184.775 21.4954H183.097V17.2074C183.097 15.8554 182.591 15.1786 181.578 15.1786C180.801 15.1786 180.269 15.5706 179.978 16.3546C179.929 16.5194 179.9 16.721 179.9 16.9578V21.4938H178.225V10.4922H179.9V15.0378H179.932C180.46 14.2106 181.217 13.7978 182.197 13.7978C182.892 13.7978 183.466 14.025 183.922 14.481C184.49 15.049 184.775 15.8938 184.775 17.0106V21.4954Z" fill="white"/>
        <path d="M193.931 17.3636C193.931 17.6644 193.909 17.9172 193.869 18.1236H188.84C188.862 18.8692 189.102 19.4372 189.568 19.8308C189.994 20.1828 190.542 20.3588 191.214 20.3588C191.958 20.3588 192.637 20.2404 193.248 20.002L193.51 21.1668C192.795 21.4772 191.954 21.6324 190.979 21.6324C189.811 21.6324 188.891 21.2884 188.226 20.6004C187.557 19.9124 187.226 18.9892 187.226 17.8309C187.226 16.6932 187.534 15.746 188.157 14.9908C188.806 14.1844 189.685 13.7812 190.794 13.7812C191.878 13.7812 192.702 14.1844 193.259 14.9908C193.709 15.6308 193.931 16.4228 193.931 17.3636ZM192.331 16.93C192.344 16.4324 192.234 16.0036 192.006 15.6421C191.715 15.1765 191.272 14.9428 190.672 14.9428C190.125 14.9428 189.678 15.17 189.338 15.626C189.059 15.9892 188.894 16.4228 188.84 16.93H192.331Z" fill="white"/>
    </g>
    <defs>
        <clipPath id="clip0_129_8408">
            <rect width="216" height="64" fill="white"/>
        </clipPath>
    </defs>
</svg>
