<svg width="64" height="64" viewBox="0 0 64 64" fill="none" xmlns="http://www.w3.org/2000/svg">
    <path d="M42.773 4H10V60H54V15.477L42.773 4ZM44 8.114L50.735 15H44V8.114ZM52 58H12V6H41.932L42 6.07V17H52V58Z" fill="black"/>
    <path d="M42.773 4H10V60H54V15.477L42.773 4ZM44 8.114L50.735 15H44V8.114ZM52 58H12V6H41.932L42 6.07V17H52V58Z" fill="black" fill-opacity="0.2"/>
    <path d="M42.773 4H10V60H54V15.477L42.773 4ZM44 8.114L50.735 15H44V8.114ZM52 58H12V6H41.932L42 6.07V17H52V58Z" fill="black" fill-opacity="0.2"/>
    <path d="M34 17H17V19H34V17Z" fill="black"/>
    <path d="M34 17H17V19H34V17Z" fill="black" fill-opacity="0.2"/>
    <path d="M34 17H17V19H34V17Z" fill="black" fill-opacity="0.2"/>
    <path d="M34 23H17V25H34V23Z" fill="black"/>
    <path d="M34 23H17V25H34V23Z" fill="black" fill-opacity="0.2"/>
    <path d="M34 23H17V25H34V23Z" fill="black" fill-opacity="0.2"/>
    <path d="M34 29H17V31H34V29Z" fill="black"/>
    <path d="M34 29H17V31H34V29Z" fill="black" fill-opacity="0.2"/>
    <path d="M34 29H17V31H34V29Z" fill="black" fill-opacity="0.2"/>
    <path d="M35.2354 45.8857C35.2354 49.1947 37.9274 51.8867 41.2364 51.8867C44.5444 51.8867 47.2354 49.1947 47.2354 45.8857C47.2354 42.5777 44.5444 39.8867 41.2364 39.8867C37.9284 39.8867 35.2354 42.5777 35.2354 45.8857ZM45.2354 45.8857C45.2354 48.0917 43.4414 49.8867 41.2364 49.8867C39.0304 49.8867 37.2354 48.0917 37.2354 45.8857C37.2354 43.6807 39.0304 41.8867 41.2364 41.8867C43.4414 41.8867 45.2354 43.6807 45.2354 45.8857Z" fill="black"/>
    <path d="M35.2354 45.8857C35.2354 49.1947 37.9274 51.8867 41.2364 51.8867C44.5444 51.8867 47.2354 49.1947 47.2354 45.8857C47.2354 42.5777 44.5444 39.8867 41.2364 39.8867C37.9284 39.8867 35.2354 42.5777 35.2354 45.8857ZM45.2354 45.8857C45.2354 48.0917 43.4414 49.8867 41.2364 49.8867C39.0304 49.8867 37.2354 48.0917 37.2354 45.8857C37.2354 43.6807 39.0304 41.8867 41.2364 41.8867C43.4414 41.8867 45.2354 43.6807 45.2354 45.8857Z" fill="black" fill-opacity="0.2"/>
    <path d="M35.2354 45.8857C35.2354 49.1947 37.9274 51.8867 41.2364 51.8867C44.5444 51.8867 47.2354 49.1947 47.2354 45.8857C47.2354 42.5777 44.5444 39.8867 41.2364 39.8867C37.9284 39.8867 35.2354 42.5777 35.2354 45.8857ZM45.2354 45.8857C45.2354 48.0917 43.4414 49.8867 41.2364 49.8867C39.0304 49.8867 37.2354 48.0917 37.2354 45.8857C37.2354 43.6807 39.0304 41.8867 41.2364 41.8867C43.4414 41.8867 45.2354 43.6807 45.2354 45.8857Z" fill="black" fill-opacity="0.2"/>
</svg>
