<svg width="64" height="64" viewBox="0 0 64 64" fill="none" xmlns="http://www.w3.org/2000/svg">
    <path d="M22.4332 30.7949L24.0792 32.4399L25.4932 31.0259L22.9782 28.5109L22.3882 28.7129C18.9032 29.9069 13.6192 29.6609 10.2532 26.2969C7.75323 23.7959 6.61623 20.2769 7.10623 16.8019L14.7672 24.4629L24.8642 14.3649L17.5072 7.00786C20.5592 6.94486 24.1972 7.66386 26.5402 10.0079C29.8802 13.3449 30.2002 18.3969 29.0352 21.9229L28.8422 22.5079L31.4262 25.0919L32.8402 23.6779L31.1152 21.9529C32.2452 17.8849 31.7082 12.3449 27.9532 8.59386C24.5232 5.16186 19.0802 4.59686 15.1322 5.21386L13.1872 5.51786L22.0352 14.3659L14.7662 21.6359L6.04823 12.9169L5.56623 14.5189C4.15123 19.2219 5.40523 24.2779 8.83923 27.7119C12.6172 31.4889 18.3892 31.9529 22.4332 30.7949Z" fill="black"/>
    <path d="M22.4332 30.7949L24.0792 32.4399L25.4932 31.0259L22.9782 28.5109L22.3882 28.7129C18.9032 29.9069 13.6192 29.6609 10.2532 26.2969C7.75323 23.7959 6.61623 20.2769 7.10623 16.8019L14.7672 24.4629L24.8642 14.3649L17.5072 7.00786C20.5592 6.94486 24.1972 7.66386 26.5402 10.0079C29.8802 13.3449 30.2002 18.3969 29.0352 21.9229L28.8422 22.5079L31.4262 25.0919L32.8402 23.6779L31.1152 21.9529C32.2452 17.8849 31.7082 12.3449 27.9532 8.59386C24.5232 5.16186 19.0802 4.59686 15.1322 5.21386L13.1872 5.51786L22.0352 14.3659L14.7662 21.6359L6.04823 12.9169L5.56623 14.5189C4.15123 19.2219 5.40523 24.2779 8.83923 27.7119C12.6172 31.4889 18.3892 31.9529 22.4332 30.7949Z" fill="black" fill-opacity="0.2"/>
    <path d="M22.4332 30.7949L24.0792 32.4399L25.4932 31.0259L22.9782 28.5109L22.3882 28.7129C18.9032 29.9069 13.6192 29.6609 10.2532 26.2969C7.75323 23.7959 6.61623 20.2769 7.10623 16.8019L14.7672 24.4629L24.8642 14.3649L17.5072 7.00786C20.5592 6.94486 24.1972 7.66386 26.5402 10.0079C29.8802 13.3449 30.2002 18.3969 29.0352 21.9229L28.8422 22.5079L31.4262 25.0919L32.8402 23.6779L31.1152 21.9529C32.2452 17.8849 31.7082 12.3449 27.9532 8.59386C24.5232 5.16186 19.0802 4.59686 15.1322 5.21386L13.1872 5.51786L22.0352 14.3659L14.7662 21.6359L6.04823 12.9169L5.56623 14.5189C4.15123 19.2219 5.40523 24.2779 8.83923 27.7119C12.6172 31.4889 18.3892 31.9529 22.4332 30.7949Z" fill="black" fill-opacity="0.2"/>
    <path d="M46.9306 37.7663L42.1916 33.0273L40.7776 34.4413L46.1466 39.8103L46.5946 39.7833C47.8406 39.7113 52.0746 39.6604 54.5836 42.1684C56.1766 43.7604 57.0326 45.9183 56.9946 48.2443C56.9566 50.5633 56.0426 52.7333 54.4216 54.3533C51.0796 57.6943 45.6666 57.7154 42.3516 54.4034C40.1516 52.2024 39.2936 49.1704 40.0586 46.2934L40.2056 45.7363L34.8456 40.3763L33.4316 41.7903L37.9916 46.3503C37.2926 49.7493 38.3716 53.2503 40.9376 55.8183C42.9766 57.8563 45.6556 58.8753 48.3416 58.8743C51.0506 58.8743 53.7666 57.8383 55.8356 55.7693C57.8256 53.7813 58.9476 51.1213 58.9936 48.2793C59.0416 45.4053 57.9766 42.7333 55.9976 40.7563C53.2056 37.9623 49.0076 37.6913 46.9306 37.7663Z" fill="black"/>
    <path d="M46.9306 37.7663L42.1916 33.0273L40.7776 34.4413L46.1466 39.8103L46.5946 39.7833C47.8406 39.7113 52.0746 39.6604 54.5836 42.1684C56.1766 43.7604 57.0326 45.9183 56.9946 48.2443C56.9566 50.5633 56.0426 52.7333 54.4216 54.3533C51.0796 57.6943 45.6666 57.7154 42.3516 54.4034C40.1516 52.2024 39.2936 49.1704 40.0586 46.2934L40.2056 45.7363L34.8456 40.3763L33.4316 41.7903L37.9916 46.3503C37.2926 49.7493 38.3716 53.2503 40.9376 55.8183C42.9766 57.8563 45.6556 58.8753 48.3416 58.8743C51.0506 58.8743 53.7666 57.8383 55.8356 55.7693C57.8256 53.7813 58.9476 51.1213 58.9936 48.2793C59.0416 45.4053 57.9766 42.7333 55.9976 40.7563C53.2056 37.9623 49.0076 37.6913 46.9306 37.7663Z" fill="black" fill-opacity="0.2"/>
    <path d="M46.9306 37.7663L42.1916 33.0273L40.7776 34.4413L46.1466 39.8103L46.5946 39.7833C47.8406 39.7113 52.0746 39.6604 54.5836 42.1684C56.1766 43.7604 57.0326 45.9183 56.9946 48.2443C56.9566 50.5633 56.0426 52.7333 54.4216 54.3533C51.0796 57.6943 45.6666 57.7154 42.3516 54.4034C40.1516 52.2024 39.2936 49.1704 40.0586 46.2934L40.2056 45.7363L34.8456 40.3763L33.4316 41.7903L37.9916 46.3503C37.2926 49.7493 38.3716 53.2503 40.9376 55.8183C42.9766 57.8563 45.6556 58.8753 48.3416 58.8743C51.0506 58.8743 53.7666 57.8383 55.8356 55.7693C57.8256 53.7813 58.9476 51.1213 58.9936 48.2793C59.0416 45.4053 57.9766 42.7333 55.9976 40.7563C53.2056 37.9623 49.0076 37.6913 46.9306 37.7663Z" fill="black" fill-opacity="0.2"/>
    <path d="M52.159 51.905C53.137 50.928 53.674 49.63 53.674 48.249C53.673 46.868 53.134 45.571 52.157 44.597C51.18 43.62 49.882 43.082 48.503 43.082C48.502 43.082 48.504 43.082 48.503 43.082C47.124 43.082 45.825 43.62 44.849 44.596C43.872 45.573 43.334 46.87 43.335 48.251C43.335 49.631 43.873 50.928 44.849 51.903C45.827 52.88 47.124 53.418 48.505 53.418C49.885 53.418 51.183 52.881 52.159 51.905ZM46.263 50.489C45.664 49.891 45.335 49.095 45.335 48.25C45.335 47.405 45.664 46.609 46.263 46.011C46.862 45.413 47.658 45.082 48.503 45.082C49.348 45.082 50.145 45.412 50.744 46.012C51.343 46.61 51.673 47.405 51.674 48.25C51.674 49.097 51.345 49.893 50.745 50.49C49.548 51.688 47.462 51.687 46.263 50.489Z" fill="black"/>
    <path d="M52.159 51.905C53.137 50.928 53.674 49.63 53.674 48.249C53.673 46.868 53.134 45.571 52.157 44.597C51.18 43.62 49.882 43.082 48.503 43.082C48.502 43.082 48.504 43.082 48.503 43.082C47.124 43.082 45.825 43.62 44.849 44.596C43.872 45.573 43.334 46.87 43.335 48.251C43.335 49.631 43.873 50.928 44.849 51.903C45.827 52.88 47.124 53.418 48.505 53.418C49.885 53.418 51.183 52.881 52.159 51.905ZM46.263 50.489C45.664 49.891 45.335 49.095 45.335 48.25C45.335 47.405 45.664 46.609 46.263 46.011C46.862 45.413 47.658 45.082 48.503 45.082C49.348 45.082 50.145 45.412 50.744 46.012C51.343 46.61 51.673 47.405 51.674 48.25C51.674 49.097 51.345 49.893 50.745 50.49C49.548 51.688 47.462 51.687 46.263 50.489Z" fill="black" fill-opacity="0.2"/>
    <path d="M52.159 51.905C53.137 50.928 53.674 49.63 53.674 48.249C53.673 46.868 53.134 45.571 52.157 44.597C51.18 43.62 49.882 43.082 48.503 43.082C48.502 43.082 48.504 43.082 48.503 43.082C47.124 43.082 45.825 43.62 44.849 44.596C43.872 45.573 43.334 46.87 43.335 48.251C43.335 49.631 43.873 50.928 44.849 51.903C45.827 52.88 47.124 53.418 48.505 53.418C49.885 53.418 51.183 52.881 52.159 51.905ZM46.263 50.489C45.664 49.891 45.335 49.095 45.335 48.25C45.335 47.405 45.664 46.609 46.263 46.011C46.862 45.413 47.658 45.082 48.503 45.082C49.348 45.082 50.145 45.412 50.744 46.012C51.343 46.61 51.673 47.405 51.674 48.25C51.674 49.097 51.345 49.893 50.745 50.49C49.548 51.688 47.462 51.687 46.263 50.489Z" fill="black" fill-opacity="0.2"/>
    <path d="M36.9981 37.7821C37.6281 37.1531 37.9611 36.2761 37.9611 35.2451C37.9621 34.3851 37.7231 33.4901 37.3021 32.6521L51.3171 18.6391L54.4411 19.3191L59.1861 9.94806L55.6531 6.41406L46.4051 11.3241L47.2141 14.5681L33.2911 28.4921C32.4211 28.0061 31.4741 27.7351 30.5691 27.7351C29.5321 27.7351 28.6051 28.0911 27.9581 28.7401C26.8991 29.7991 26.6541 31.5131 27.2741 33.1731L25.2381 35.2101C24.7381 35.0791 24.2171 35.0121 23.7001 35.0121C22.2351 35.0121 20.9011 35.5381 19.9431 36.4941L8.06909 48.3711C7.06409 49.3761 6.46709 50.8311 6.43409 52.3631C6.40009 53.9231 6.95709 55.3931 7.96209 56.3981L9.21209 57.6481C10.0971 58.5331 11.2431 59.0011 12.5271 59.0011C14.0741 59.0011 15.6421 58.3191 16.8301 57.1321L28.7041 45.2581C30.0721 43.8921 30.6021 42.0971 30.5581 40.7331L32.7721 38.5191C33.2851 38.6341 33.8321 38.6971 34.3411 38.6971C35.4801 38.6961 36.4001 38.3801 36.9981 37.7821ZM48.7231 12.3571L55.2841 8.87506L56.7471 10.3371L53.3551 17.0361L50.6741 16.4521L36.1351 30.9911C36.0911 30.9451 36.0521 30.8951 36.0071 30.8501L34.8821 29.7281L49.4281 15.1811L48.7231 12.3571ZM32.2011 36.2611L28.4521 40.0091L28.5321 40.5131C28.6751 41.4091 28.2941 42.8401 27.2891 43.8431L15.4151 55.7181C14.6111 56.5221 13.5321 57.0011 12.5261 57.0011C12.0081 57.0011 11.2591 56.8681 10.6261 56.2341L9.37609 54.9841C8.75509 54.3631 8.41209 53.4231 8.43409 52.4061C8.45609 51.3851 8.83909 50.4291 9.48309 49.7851L21.3571 37.9091C21.9371 37.3301 22.7691 37.0121 23.7001 37.0121C24.1961 37.0121 24.6981 37.1051 25.1521 37.2821L25.7601 37.5171L29.6961 33.5791L29.3511 32.9271C28.8001 31.8851 28.8091 30.7191 29.3721 30.1561C29.7181 29.8091 30.2141 29.7371 30.5691 29.7371C31.5041 29.7371 32.5411 30.2161 33.3441 31.0201L34.5941 32.2671C35.4391 33.1111 35.9631 34.2521 35.9621 35.2461C35.9621 35.5871 35.8971 36.0591 35.5861 36.3691C35.3761 36.5781 34.9231 36.6981 34.3411 36.6981C33.7441 36.6981 33.1471 36.5721 32.7861 36.4541L32.2011 36.2611Z" fill="black"/>
    <path d="M36.9981 37.7821C37.6281 37.1531 37.9611 36.2761 37.9611 35.2451C37.9621 34.3851 37.7231 33.4901 37.3021 32.6521L51.3171 18.6391L54.4411 19.3191L59.1861 9.94806L55.6531 6.41406L46.4051 11.3241L47.2141 14.5681L33.2911 28.4921C32.4211 28.0061 31.4741 27.7351 30.5691 27.7351C29.5321 27.7351 28.6051 28.0911 27.9581 28.7401C26.8991 29.7991 26.6541 31.5131 27.2741 33.1731L25.2381 35.2101C24.7381 35.0791 24.2171 35.0121 23.7001 35.0121C22.2351 35.0121 20.9011 35.5381 19.9431 36.4941L8.06909 48.3711C7.06409 49.3761 6.46709 50.8311 6.43409 52.3631C6.40009 53.9231 6.95709 55.3931 7.96209 56.3981L9.21209 57.6481C10.0971 58.5331 11.2431 59.0011 12.5271 59.0011C14.0741 59.0011 15.6421 58.3191 16.8301 57.1321L28.7041 45.2581C30.0721 43.8921 30.6021 42.0971 30.5581 40.7331L32.7721 38.5191C33.2851 38.6341 33.8321 38.6971 34.3411 38.6971C35.4801 38.6961 36.4001 38.3801 36.9981 37.7821ZM48.7231 12.3571L55.2841 8.87506L56.7471 10.3371L53.3551 17.0361L50.6741 16.4521L36.1351 30.9911C36.0911 30.9451 36.0521 30.8951 36.0071 30.8501L34.8821 29.7281L49.4281 15.1811L48.7231 12.3571ZM32.2011 36.2611L28.4521 40.0091L28.5321 40.5131C28.6751 41.4091 28.2941 42.8401 27.2891 43.8431L15.4151 55.7181C14.6111 56.5221 13.5321 57.0011 12.5261 57.0011C12.0081 57.0011 11.2591 56.8681 10.6261 56.2341L9.37609 54.9841C8.75509 54.3631 8.41209 53.4231 8.43409 52.4061C8.45609 51.3851 8.83909 50.4291 9.48309 49.7851L21.3571 37.9091C21.9371 37.3301 22.7691 37.0121 23.7001 37.0121C24.1961 37.0121 24.6981 37.1051 25.1521 37.2821L25.7601 37.5171L29.6961 33.5791L29.3511 32.9271C28.8001 31.8851 28.8091 30.7191 29.3721 30.1561C29.7181 29.8091 30.2141 29.7371 30.5691 29.7371C31.5041 29.7371 32.5411 30.2161 33.3441 31.0201L34.5941 32.2671C35.4391 33.1111 35.9631 34.2521 35.9621 35.2461C35.9621 35.5871 35.8971 36.0591 35.5861 36.3691C35.3761 36.5781 34.9231 36.6981 34.3411 36.6981C33.7441 36.6981 33.1471 36.5721 32.7861 36.4541L32.2011 36.2611Z" fill="black" fill-opacity="0.2"/>
    <path d="M36.9981 37.7821C37.6281 37.1531 37.9611 36.2761 37.9611 35.2451C37.9621 34.3851 37.7231 33.4901 37.3021 32.6521L51.3171 18.6391L54.4411 19.3191L59.1861 9.94806L55.6531 6.41406L46.4051 11.3241L47.2141 14.5681L33.2911 28.4921C32.4211 28.0061 31.4741 27.7351 30.5691 27.7351C29.5321 27.7351 28.6051 28.0911 27.9581 28.7401C26.8991 29.7991 26.6541 31.5131 27.2741 33.1731L25.2381 35.2101C24.7381 35.0791 24.2171 35.0121 23.7001 35.0121C22.2351 35.0121 20.9011 35.5381 19.9431 36.4941L8.06909 48.3711C7.06409 49.3761 6.46709 50.8311 6.43409 52.3631C6.40009 53.9231 6.95709 55.3931 7.96209 56.3981L9.21209 57.6481C10.0971 58.5331 11.2431 59.0011 12.5271 59.0011C14.0741 59.0011 15.6421 58.3191 16.8301 57.1321L28.7041 45.2581C30.0721 43.8921 30.6021 42.0971 30.5581 40.7331L32.7721 38.5191C33.2851 38.6341 33.8321 38.6971 34.3411 38.6971C35.4801 38.6961 36.4001 38.3801 36.9981 37.7821ZM48.7231 12.3571L55.2841 8.87506L56.7471 10.3371L53.3551 17.0361L50.6741 16.4521L36.1351 30.9911C36.0911 30.9451 36.0521 30.8951 36.0071 30.8501L34.8821 29.7281L49.4281 15.1811L48.7231 12.3571ZM32.2011 36.2611L28.4521 40.0091L28.5321 40.5131C28.6751 41.4091 28.2941 42.8401 27.2891 43.8431L15.4151 55.7181C14.6111 56.5221 13.5321 57.0011 12.5261 57.0011C12.0081 57.0011 11.2591 56.8681 10.6261 56.2341L9.37609 54.9841C8.75509 54.3631 8.41209 53.4231 8.43409 52.4061C8.45609 51.3851 8.83909 50.4291 9.48309 49.7851L21.3571 37.9091C21.9371 37.3301 22.7691 37.0121 23.7001 37.0121C24.1961 37.0121 24.6981 37.1051 25.1521 37.2821L25.7601 37.5171L29.6961 33.5791L29.3511 32.9271C28.8001 31.8851 28.8091 30.7191 29.3721 30.1561C29.7181 29.8091 30.2141 29.7371 30.5691 29.7371C31.5041 29.7371 32.5411 30.2161 33.3441 31.0201L34.5941 32.2671C35.4391 33.1111 35.9631 34.2521 35.9621 35.2461C35.9621 35.5871 35.8971 36.0591 35.5861 36.3691C35.3761 36.5781 34.9231 36.6981 34.3411 36.6981C33.7441 36.6981 33.1471 36.5721 32.7861 36.4541L32.2011 36.2611Z" fill="black" fill-opacity="0.2"/>
</svg>
