<svg width="64" height="64" viewBox="0 0 64 64" fill="none" xmlns="http://www.w3.org/2000/svg">
    <path d="M63.409 45.256C63.062 41.459 61.619 36.942 59.346 32.537C55.212 24.523 49.379 18.927 45.162 18.927C44.447 18.927 43.782 19.082 43.188 19.389L43.187 19.39L40.915 20.561V14.37C40.915 14.357 40.919 14.345 40.919 14.331H40.915C40.915 9.582 32.767 6 21.962 6C11.158 6 3.011 9.582 3.011 14.331V25.71H3C3 25.739 3.009 25.768 3.01 25.798V37.089H3C3 37.118 3.009 37.147 3.01 37.177V48.471C3.01 53.22 11.157 56.801 21.961 56.801C29.287 56.801 35.767 55.071 38.888 52.341C42.182 56.451 45.758 58.999 48.601 59C49.316 59 49.98 58.845 50.575 58.538L60.69 53.322L60.693 53.321C62.819 52.225 63.784 49.36 63.409 45.256ZM33.068 24.604C31.211 25.561 30.241 27.867 30.275 31.167C27.73 31.73 24.883 32.04 21.957 32.04C12.04 32.04 5.115 28.754 5.01 25.776V18.071C8.078 20.811 14.439 22.659 21.977 22.659C29.49 22.659 35.834 20.824 38.914 18.099V21.59L33.068 24.604ZM30.416 33.182C30.722 35.849 31.539 38.835 32.793 41.879C29.732 42.872 25.937 43.418 21.957 43.418C12.04 43.418 5.115 40.133 5.01 37.156V29.484C8.094 32.207 14.442 34.041 21.957 34.041C24.916 34.041 27.804 33.735 30.416 33.182ZM21.961 7.999C32.102 7.999 38.914 11.272 38.914 14.33V14.36C38.867 17.346 31.927 20.66 21.977 20.66C11.994 20.66 5.037 17.324 5.037 14.33H5.01C5.01 11.272 11.821 7.999 21.961 7.999ZM21.961 54.8C11.821 54.8 5.01 51.527 5.01 48.47V40.863C8.094 43.586 14.442 45.419 21.957 45.419C26.22 45.419 30.303 44.815 33.596 43.719C33.856 44.277 34.129 44.834 34.416 45.39C35.417 47.331 36.52 49.127 37.674 50.741C35.027 53.183 28.84 54.8 21.961 54.8ZM49.658 56.76C49.345 56.921 49 56.999 48.601 56.999C45.718 56.999 40.39 52.608 36.193 44.472C34.035 40.29 32.668 36.034 32.344 32.488C32.052 29.297 32.65 27.071 33.985 26.383L40.731 22.906C40.411 24.171 40.31 25.689 40.471 27.455C40.818 31.252 42.261 35.768 44.534 40.173C46.806 44.58 49.652 48.375 52.545 50.86C53.883 52.008 55.177 52.818 56.388 53.292L49.658 56.76ZM53.847 49.341C51.145 47.021 48.468 43.439 46.311 39.255C44.153 35.074 42.786 30.818 42.462 27.272C42.17 24.081 42.769 21.855 44.105 21.167C44.418 21.006 44.764 20.928 45.163 20.928C48.044 20.928 53.372 25.319 57.57 33.455C59.728 37.636 61.094 41.893 61.419 45.439C61.711 48.63 61.112 50.855 59.778 51.543C58.442 52.234 56.28 51.429 53.847 49.341Z" fill="black"/>
    <path d="M63.409 45.256C63.062 41.459 61.619 36.942 59.346 32.537C55.212 24.523 49.379 18.927 45.162 18.927C44.447 18.927 43.782 19.082 43.188 19.389L43.187 19.39L40.915 20.561V14.37C40.915 14.357 40.919 14.345 40.919 14.331H40.915C40.915 9.582 32.767 6 21.962 6C11.158 6 3.011 9.582 3.011 14.331V25.71H3C3 25.739 3.009 25.768 3.01 25.798V37.089H3C3 37.118 3.009 37.147 3.01 37.177V48.471C3.01 53.22 11.157 56.801 21.961 56.801C29.287 56.801 35.767 55.071 38.888 52.341C42.182 56.451 45.758 58.999 48.601 59C49.316 59 49.98 58.845 50.575 58.538L60.69 53.322L60.693 53.321C62.819 52.225 63.784 49.36 63.409 45.256ZM33.068 24.604C31.211 25.561 30.241 27.867 30.275 31.167C27.73 31.73 24.883 32.04 21.957 32.04C12.04 32.04 5.115 28.754 5.01 25.776V18.071C8.078 20.811 14.439 22.659 21.977 22.659C29.49 22.659 35.834 20.824 38.914 18.099V21.59L33.068 24.604ZM30.416 33.182C30.722 35.849 31.539 38.835 32.793 41.879C29.732 42.872 25.937 43.418 21.957 43.418C12.04 43.418 5.115 40.133 5.01 37.156V29.484C8.094 32.207 14.442 34.041 21.957 34.041C24.916 34.041 27.804 33.735 30.416 33.182ZM21.961 7.999C32.102 7.999 38.914 11.272 38.914 14.33V14.36C38.867 17.346 31.927 20.66 21.977 20.66C11.994 20.66 5.037 17.324 5.037 14.33H5.01C5.01 11.272 11.821 7.999 21.961 7.999ZM21.961 54.8C11.821 54.8 5.01 51.527 5.01 48.47V40.863C8.094 43.586 14.442 45.419 21.957 45.419C26.22 45.419 30.303 44.815 33.596 43.719C33.856 44.277 34.129 44.834 34.416 45.39C35.417 47.331 36.52 49.127 37.674 50.741C35.027 53.183 28.84 54.8 21.961 54.8ZM49.658 56.76C49.345 56.921 49 56.999 48.601 56.999C45.718 56.999 40.39 52.608 36.193 44.472C34.035 40.29 32.668 36.034 32.344 32.488C32.052 29.297 32.65 27.071 33.985 26.383L40.731 22.906C40.411 24.171 40.31 25.689 40.471 27.455C40.818 31.252 42.261 35.768 44.534 40.173C46.806 44.58 49.652 48.375 52.545 50.86C53.883 52.008 55.177 52.818 56.388 53.292L49.658 56.76ZM53.847 49.341C51.145 47.021 48.468 43.439 46.311 39.255C44.153 35.074 42.786 30.818 42.462 27.272C42.17 24.081 42.769 21.855 44.105 21.167C44.418 21.006 44.764 20.928 45.163 20.928C48.044 20.928 53.372 25.319 57.57 33.455C59.728 37.636 61.094 41.893 61.419 45.439C61.711 48.63 61.112 50.855 59.778 51.543C58.442 52.234 56.28 51.429 53.847 49.341Z" fill="black" fill-opacity="0.2"/>
    <path d="M63.409 45.256C63.062 41.459 61.619 36.942 59.346 32.537C55.212 24.523 49.379 18.927 45.162 18.927C44.447 18.927 43.782 19.082 43.188 19.389L43.187 19.39L40.915 20.561V14.37C40.915 14.357 40.919 14.345 40.919 14.331H40.915C40.915 9.582 32.767 6 21.962 6C11.158 6 3.011 9.582 3.011 14.331V25.71H3C3 25.739 3.009 25.768 3.01 25.798V37.089H3C3 37.118 3.009 37.147 3.01 37.177V48.471C3.01 53.22 11.157 56.801 21.961 56.801C29.287 56.801 35.767 55.071 38.888 52.341C42.182 56.451 45.758 58.999 48.601 59C49.316 59 49.98 58.845 50.575 58.538L60.69 53.322L60.693 53.321C62.819 52.225 63.784 49.36 63.409 45.256ZM33.068 24.604C31.211 25.561 30.241 27.867 30.275 31.167C27.73 31.73 24.883 32.04 21.957 32.04C12.04 32.04 5.115 28.754 5.01 25.776V18.071C8.078 20.811 14.439 22.659 21.977 22.659C29.49 22.659 35.834 20.824 38.914 18.099V21.59L33.068 24.604ZM30.416 33.182C30.722 35.849 31.539 38.835 32.793 41.879C29.732 42.872 25.937 43.418 21.957 43.418C12.04 43.418 5.115 40.133 5.01 37.156V29.484C8.094 32.207 14.442 34.041 21.957 34.041C24.916 34.041 27.804 33.735 30.416 33.182ZM21.961 7.999C32.102 7.999 38.914 11.272 38.914 14.33V14.36C38.867 17.346 31.927 20.66 21.977 20.66C11.994 20.66 5.037 17.324 5.037 14.33H5.01C5.01 11.272 11.821 7.999 21.961 7.999ZM21.961 54.8C11.821 54.8 5.01 51.527 5.01 48.47V40.863C8.094 43.586 14.442 45.419 21.957 45.419C26.22 45.419 30.303 44.815 33.596 43.719C33.856 44.277 34.129 44.834 34.416 45.39C35.417 47.331 36.52 49.127 37.674 50.741C35.027 53.183 28.84 54.8 21.961 54.8ZM49.658 56.76C49.345 56.921 49 56.999 48.601 56.999C45.718 56.999 40.39 52.608 36.193 44.472C34.035 40.29 32.668 36.034 32.344 32.488C32.052 29.297 32.65 27.071 33.985 26.383L40.731 22.906C40.411 24.171 40.31 25.689 40.471 27.455C40.818 31.252 42.261 35.768 44.534 40.173C46.806 44.58 49.652 48.375 52.545 50.86C53.883 52.008 55.177 52.818 56.388 53.292L49.658 56.76ZM53.847 49.341C51.145 47.021 48.468 43.439 46.311 39.255C44.153 35.074 42.786 30.818 42.462 27.272C42.17 24.081 42.769 21.855 44.105 21.167C44.418 21.006 44.764 20.928 45.163 20.928C48.044 20.928 53.372 25.319 57.57 33.455C59.728 37.636 61.094 41.893 61.419 45.439C61.711 48.63 61.112 50.855 59.778 51.543C58.442 52.234 56.28 51.429 53.847 49.341Z" fill="black" fill-opacity="0.2"/>
</svg>
