<svg width="64" height="64" viewBox="0 0 64 64" fill="none" xmlns="http://www.w3.org/2000/svg">
    <path d="M58.4013 22.623L56.5163 23.293C57.5073 26.084 58.0103 29.013 58.0103 31.998C58.0103 46.336 46.3413 58 31.9983 58C17.6563 58 5.98828 46.336 5.98828 31.998C5.98828 17.663 17.6563 6 31.9983 6C37.9573 6 43.5623 7.959 48.2093 11.666L49.4573 10.102C44.5233 6.167 38.3233 4 31.9983 4C16.5543 4 3.98828 16.56 3.98828 31.998C3.98828 47.438 16.5533 60 31.9983 60C47.4433 60 60.0103 47.438 60.0103 31.998C60.0113 28.784 59.4703 25.63 58.4013 22.623Z" fill="black"/>
    <path d="M58.4013 22.623L56.5163 23.293C57.5073 26.084 58.0103 29.013 58.0103 31.998C58.0103 46.336 46.3413 58 31.9983 58C17.6563 58 5.98828 46.336 5.98828 31.998C5.98828 17.663 17.6563 6 31.9983 6C37.9573 6 43.5623 7.959 48.2093 11.666L49.4573 10.102C44.5233 6.167 38.3233 4 31.9983 4C16.5543 4 3.98828 16.56 3.98828 31.998C3.98828 47.438 16.5533 60 31.9983 60C47.4433 60 60.0103 47.438 60.0103 31.998C60.0113 28.784 59.4703 25.63 58.4013 22.623Z" fill="black" fill-opacity="0.2"/>
    <path d="M58.4013 22.623L56.5163 23.293C57.5073 26.084 58.0103 29.013 58.0103 31.998C58.0103 46.336 46.3413 58 31.9983 58C17.6563 58 5.98828 46.336 5.98828 31.998C5.98828 17.663 17.6563 6 31.9983 6C37.9573 6 43.5623 7.959 48.2093 11.666L49.4573 10.102C44.5233 6.167 38.3233 4 31.9983 4C16.5543 4 3.98828 16.56 3.98828 31.998C3.98828 47.438 16.5533 60 31.9983 60C47.4433 60 60.0103 47.438 60.0103 31.998C60.0113 28.784 59.4703 25.63 58.4013 22.623Z" fill="black" fill-opacity="0.2"/>
    <path d="M20.2287 26.4107L18.8457 27.8557L32.7417 41.1497L59.4107 10.9607L57.9127 9.63672L32.6207 38.2677L20.2287 26.4107Z" fill="black"/>
    <path d="M20.2287 26.4107L18.8457 27.8557L32.7417 41.1497L59.4107 10.9607L57.9127 9.63672L32.6207 38.2677L20.2287 26.4107Z" fill="black" fill-opacity="0.2"/>
    <path d="M20.2287 26.4107L18.8457 27.8557L32.7417 41.1497L59.4107 10.9607L57.9127 9.63672L32.6207 38.2677L20.2287 26.4107Z" fill="black" fill-opacity="0.2"/>
</svg>
