<svg width="64" height="64" viewBox="0 0 64 64" fill="none" xmlns="http://www.w3.org/2000/svg">
    <path d="M41 46H36V40H28V46H23V36H21V48H30V42H34V48H43V36H41V46Z" fill="black"/>
    <path d="M41 46H36V40H28V46H23V36H21V48H30V42H34V48H43V36H41V46Z" fill="black" fill-opacity="0.2"/>
    <path d="M41 46H36V40H28V46H23V36H21V48H30V42H34V48H43V36H41V46Z" fill="black" fill-opacity="0.2"/>
    <path d="M41 24.9999H39V27.5859L32 20.5859L17.376 35.2099L18.791 36.6239L32 23.4139L45.209 36.6239L46.624 35.2099L41 29.5859V24.9999Z" fill="black"/>
    <path d="M41 24.9999H39V27.5859L32 20.5859L17.376 35.2099L18.791 36.6239L32 23.4139L45.209 36.6239L46.624 35.2099L41 29.5859V24.9999Z" fill="black" fill-opacity="0.2"/>
    <path d="M41 24.9999H39V27.5859L32 20.5859L17.376 35.2099L18.791 36.6239L32 23.4139L45.209 36.6239L46.624 35.2099L41 29.5859V24.9999Z" fill="black" fill-opacity="0.2"/>
    <path d="M61 9.313C61 6.894 59.023 5 56.5 5H52V11H32H12V5H7.5C4.977 5 3 6.894 3 9.313V54H3.028C3.009 54.164 3 54.331 3 54.5C3 56.981 5.019 59 7.5 59H32H56.5C58.981 59 61 56.981 61 54.5C61 54.331 60.991 54.164 60.972 54L61 9.313ZM5 9.313C5 7.994 6.075 7 7.5 7H10V50H7.5C6.576 50 5.715 50.28 5 50.76V9.313ZM56.5 57H32H7.5C6.122 57 5 55.878 5 54.5C5 53.122 6.122 52 7.5 52H12V13H32H52V52H56.5C57.878 52 59 53.122 59 54.5C59 55.878 57.878 57 56.5 57ZM59 50.76C58.285 50.28 57.424 50 56.5 50H54V7H56.5C57.925 7 59 7.994 59 9.313V50.76Z" fill="black"/>
    <path d="M61 9.313C61 6.894 59.023 5 56.5 5H52V11H32H12V5H7.5C4.977 5 3 6.894 3 9.313V54H3.028C3.009 54.164 3 54.331 3 54.5C3 56.981 5.019 59 7.5 59H32H56.5C58.981 59 61 56.981 61 54.5C61 54.331 60.991 54.164 60.972 54L61 9.313ZM5 9.313C5 7.994 6.075 7 7.5 7H10V50H7.5C6.576 50 5.715 50.28 5 50.76V9.313ZM56.5 57H32H7.5C6.122 57 5 55.878 5 54.5C5 53.122 6.122 52 7.5 52H12V13H32H52V52H56.5C57.878 52 59 53.122 59 54.5C59 55.878 57.878 57 56.5 57ZM59 50.76C58.285 50.28 57.424 50 56.5 50H54V7H56.5C57.925 7 59 7.994 59 9.313V50.76Z" fill="black" fill-opacity="0.2"/>
    <path d="M61 9.313C61 6.894 59.023 5 56.5 5H52V11H32H12V5H7.5C4.977 5 3 6.894 3 9.313V54H3.028C3.009 54.164 3 54.331 3 54.5C3 56.981 5.019 59 7.5 59H32H56.5C58.981 59 61 56.981 61 54.5C61 54.331 60.991 54.164 60.972 54L61 9.313ZM5 9.313C5 7.994 6.075 7 7.5 7H10V50H7.5C6.576 50 5.715 50.28 5 50.76V9.313ZM56.5 57H32H7.5C6.122 57 5 55.878 5 54.5C5 53.122 6.122 52 7.5 52H12V13H32H52V52H56.5C57.878 52 59 53.122 59 54.5C59 55.878 57.878 57 56.5 57ZM59 50.76C58.285 50.28 57.424 50 56.5 50H54V7H56.5C57.925 7 59 7.994 59 9.313V50.76Z" fill="black" fill-opacity="0.2"/>
</svg>
