<svg width="64" height="64" viewBox="0 0 64 64" fill="none" xmlns="http://www.w3.org/2000/svg">
    <path d="M48 33H42V35H48V33Z" fill="black"/>
    <path d="M48 33H42V35H48V33Z" fill="black" fill-opacity="0.2"/>
    <path d="M48 33H42V35H48V33Z" fill="black" fill-opacity="0.2"/>
    <path d="M48 38H42V40H48V38Z" fill="black"/>
    <path d="M48 38H42V40H48V38Z" fill="black" fill-opacity="0.2"/>
    <path d="M48 38H42V40H48V38Z" fill="black" fill-opacity="0.2"/>
    <path d="M48 43H42V45H48V43Z" fill="black"/>
    <path d="M48 43H42V45H48V43Z" fill="black" fill-opacity="0.2"/>
    <path d="M48 43H42V45H48V43Z" fill="black" fill-opacity="0.2"/>
    <path d="M48 48H42V50H48V48Z" fill="black"/>
    <path d="M48 48H42V50H48V48Z" fill="black" fill-opacity="0.2"/>
    <path d="M48 48H42V50H48V48Z" fill="black" fill-opacity="0.2"/>
    <path d="M48 6H16C12.691 6 10 8.691 10 12V52C10 55.309 12.691 58 16 58H48C51.309 58 54 55.309 54 52V12C54 8.691 51.309 6 48 6ZM16 8H48C50.206 8 52 9.794 52 12V25H12V12C12 9.794 13.794 8 16 8ZM48 56H16C13.794 56 12 54.206 12 52V27H52V52C52 54.206 50.206 56 48 56Z" fill="black"/>
    <path d="M48 6H16C12.691 6 10 8.691 10 12V52C10 55.309 12.691 58 16 58H48C51.309 58 54 55.309 54 52V12C54 8.691 51.309 6 48 6ZM16 8H48C50.206 8 52 9.794 52 12V25H12V12C12 9.794 13.794 8 16 8ZM48 56H16C13.794 56 12 54.206 12 52V27H52V52C52 54.206 50.206 56 48 56Z" fill="black" fill-opacity="0.2"/>
    <path d="M48 6H16C12.691 6 10 8.691 10 12V52C10 55.309 12.691 58 16 58H48C51.309 58 54 55.309 54 52V12C54 8.691 51.309 6 48 6ZM16 8H48C50.206 8 52 9.794 52 12V25H12V12C12 9.794 13.794 8 16 8ZM48 56H16C13.794 56 12 54.206 12 52V27H52V52C52 54.206 50.206 56 48 56Z" fill="black" fill-opacity="0.2"/>
    <path d="M22.5 31H18.5C17.122 31 16 32.122 16 33.5V37.5C16 38.878 17.122 40 18.5 40H22.5C23.878 40 25 38.878 25 37.5V33.5C25 32.122 23.878 31 22.5 31ZM23 37.5C23 37.771 22.771 38 22.5 38H18.5C18.229 38 18 37.771 18 37.5V33.5C18 33.229 18.229 33 18.5 33H22.5C22.771 33 23 33.229 23 33.5V37.5Z" fill="black"/>
    <path d="M22.5 31H18.5C17.122 31 16 32.122 16 33.5V37.5C16 38.878 17.122 40 18.5 40H22.5C23.878 40 25 38.878 25 37.5V33.5C25 32.122 23.878 31 22.5 31ZM23 37.5C23 37.771 22.771 38 22.5 38H18.5C18.229 38 18 37.771 18 37.5V33.5C18 33.229 18.229 33 18.5 33H22.5C22.771 33 23 33.229 23 33.5V37.5Z" fill="black" fill-opacity="0.2"/>
    <path d="M22.5 31H18.5C17.122 31 16 32.122 16 33.5V37.5C16 38.878 17.122 40 18.5 40H22.5C23.878 40 25 38.878 25 37.5V33.5C25 32.122 23.878 31 22.5 31ZM23 37.5C23 37.771 22.771 38 22.5 38H18.5C18.229 38 18 37.771 18 37.5V33.5C18 33.229 18.229 33 18.5 33H22.5C22.771 33 23 33.229 23 33.5V37.5Z" fill="black" fill-opacity="0.2"/>
    <path d="M35.5 31H31.5C30.122 31 29 32.122 29 33.5V37.5C29 38.878 30.122 40 31.5 40H35.5C36.879 40 38 38.878 38 37.5V33.5C38 32.122 36.879 31 35.5 31ZM36 37.5C36 37.771 35.771 38 35.5 38H31.5C31.229 38 31 37.771 31 37.5V33.5C31 33.229 31.229 33 31.5 33H35.5C35.771 33 36 33.229 36 33.5V37.5Z" fill="black"/>
    <path d="M35.5 31H31.5C30.122 31 29 32.122 29 33.5V37.5C29 38.878 30.122 40 31.5 40H35.5C36.879 40 38 38.878 38 37.5V33.5C38 32.122 36.879 31 35.5 31ZM36 37.5C36 37.771 35.771 38 35.5 38H31.5C31.229 38 31 37.771 31 37.5V33.5C31 33.229 31.229 33 31.5 33H35.5C35.771 33 36 33.229 36 33.5V37.5Z" fill="black" fill-opacity="0.2"/>
    <path d="M35.5 31H31.5C30.122 31 29 32.122 29 33.5V37.5C29 38.878 30.122 40 31.5 40H35.5C36.879 40 38 38.878 38 37.5V33.5C38 32.122 36.879 31 35.5 31ZM36 37.5C36 37.771 35.771 38 35.5 38H31.5C31.229 38 31 37.771 31 37.5V33.5C31 33.229 31.229 33 31.5 33H35.5C35.771 33 36 33.229 36 33.5V37.5Z" fill="black" fill-opacity="0.2"/>
    <path d="M22.5 43H18.5C17.122 43 16 44.122 16 45.5V49.5C16 50.878 17.122 52 18.5 52H22.5C23.878 52 25 50.878 25 49.5V45.5C25 44.122 23.878 43 22.5 43ZM23 49.5C23 49.771 22.771 50 22.5 50H18.5C18.229 50 18 49.771 18 49.5V45.5C18 45.229 18.229 45 18.5 45H22.5C22.771 45 23 45.229 23 45.5V49.5Z" fill="black"/>
    <path d="M22.5 43H18.5C17.122 43 16 44.122 16 45.5V49.5C16 50.878 17.122 52 18.5 52H22.5C23.878 52 25 50.878 25 49.5V45.5C25 44.122 23.878 43 22.5 43ZM23 49.5C23 49.771 22.771 50 22.5 50H18.5C18.229 50 18 49.771 18 49.5V45.5C18 45.229 18.229 45 18.5 45H22.5C22.771 45 23 45.229 23 45.5V49.5Z" fill="black" fill-opacity="0.2"/>
    <path d="M22.5 43H18.5C17.122 43 16 44.122 16 45.5V49.5C16 50.878 17.122 52 18.5 52H22.5C23.878 52 25 50.878 25 49.5V45.5C25 44.122 23.878 43 22.5 43ZM23 49.5C23 49.771 22.771 50 22.5 50H18.5C18.229 50 18 49.771 18 49.5V45.5C18 45.229 18.229 45 18.5 45H22.5C22.771 45 23 45.229 23 45.5V49.5Z" fill="black" fill-opacity="0.2"/>
    <path d="M35.5 43H31.5C30.122 43 29 44.122 29 45.5V49.5C29 50.878 30.122 52 31.5 52H35.5C36.879 52 38 50.878 38 49.5V45.5C38 44.122 36.879 43 35.5 43ZM36 49.5C36 49.771 35.771 50 35.5 50H31.5C31.229 50 31 49.771 31 49.5V45.5C31 45.229 31.229 45 31.5 45H35.5C35.771 45 36 45.229 36 45.5V49.5Z" fill="black"/>
    <path d="M35.5 43H31.5C30.122 43 29 44.122 29 45.5V49.5C29 50.878 30.122 52 31.5 52H35.5C36.879 52 38 50.878 38 49.5V45.5C38 44.122 36.879 43 35.5 43ZM36 49.5C36 49.771 35.771 50 35.5 50H31.5C31.229 50 31 49.771 31 49.5V45.5C31 45.229 31.229 45 31.5 45H35.5C35.771 45 36 45.229 36 45.5V49.5Z" fill="black" fill-opacity="0.2"/>
    <path d="M35.5 43H31.5C30.122 43 29 44.122 29 45.5V49.5C29 50.878 30.122 52 31.5 52H35.5C36.879 52 38 50.878 38 49.5V45.5C38 44.122 36.879 43 35.5 43ZM36 49.5C36 49.771 35.771 50 35.5 50H31.5C31.229 50 31 49.771 31 49.5V45.5C31 45.229 31.229 45 31.5 45H35.5C35.771 45 36 45.229 36 45.5V49.5Z" fill="black" fill-opacity="0.2"/>
    <path d="M48 14.652C48 13.239 46.779 12 45.387 12H18.599C17.214 12 16 13.239 16 14.652V21H48V14.652ZM46 19H18V14.652C18 14.353 18.325 14 18.599 14H45.387C45.668 14 46 14.354 46 14.652V19Z" fill="black"/>
    <path d="M48 14.652C48 13.239 46.779 12 45.387 12H18.599C17.214 12 16 13.239 16 14.652V21H48V14.652ZM46 19H18V14.652C18 14.353 18.325 14 18.599 14H45.387C45.668 14 46 14.354 46 14.652V19Z" fill="black" fill-opacity="0.2"/>
    <path d="M48 14.652C48 13.239 46.779 12 45.387 12H18.599C17.214 12 16 13.239 16 14.652V21H48V14.652ZM46 19H18V14.652C18 14.353 18.325 14 18.599 14H45.387C45.668 14 46 14.354 46 14.652V19Z" fill="black" fill-opacity="0.2"/>
</svg>
