<svg width="216" height="64" viewBox="0 0 216 64" fill="none" xmlns="http://www.w3.org/2000/svg">
    <g clip-path="url(#clip0_129_8399)">
        <path d="M207.997 63.9988H8.00376C3.60381 63.9988 0.00390625 60.3989 0.00390625 55.999V7.99985C0.00390625 3.5999 3.60381 0 8.00376 0H207.997C212.397 0 215.997 3.5999 215.997 7.99985V55.999C215.997 60.3989 212.397 63.9988 207.997 63.9988Z" fill="#100F0D"/>
        <path d="M207.997 0H8.00376C3.60381 0 0.00390625 3.5999 0.00390625 7.99985V55.999C0.00390625 60.3989 3.60381 63.9988 8.00376 63.9988H207.997C212.397 63.9988 215.997 60.3989 215.997 55.999V7.99985C215.997 3.5999 212.397 0 207.997 0ZM207.997 1.27933C211.703 1.27933 214.717 4.29435 214.717 7.99985V55.999C214.717 59.7045 211.703 62.7195 207.997 62.7195H8.00376C4.29825 62.7195 1.28455 59.7045 1.28455 55.999V7.99985C1.28455 4.29435 4.29825 1.27933 8.00376 1.27933H207.997Z" fill="#A2A2A1"/>
        <path d="M171.097 47.9979H174.083V27.995H171.097V47.9979ZM197.988 35.201L194.566 43.8728H194.464L190.912 35.201H187.696L193.024 47.3211L189.986 54.0634H193.099L201.309 35.2016L197.988 35.201ZM181.056 45.7258C180.08 45.7258 178.716 45.2364 178.716 44.0271C178.716 42.4833 180.415 41.8914 181.88 41.8914C183.192 41.8914 183.812 42.174 184.608 42.5602C184.376 44.4133 182.781 45.7258 181.056 45.7258ZM181.418 34.7635C179.256 34.7635 177.018 35.716 176.092 37.8261L178.741 38.9323C179.308 37.8261 180.362 37.4661 181.469 37.4661C183.013 37.4661 184.583 38.3917 184.608 40.0392V40.2448C184.067 39.936 182.909 39.4729 181.495 39.4729C178.637 39.4729 175.73 41.0422 175.73 43.9758C175.73 46.6521 178.072 48.3764 180.696 48.3764C182.703 48.3764 183.811 47.4757 184.504 46.4203H184.608V47.9652H187.491V40.2959C187.491 36.7447 184.839 34.7635 181.418 34.7635ZM162.967 37.636H158.72V30.78H162.967C165.199 30.78 166.466 32.6275 166.466 34.2079C166.466 35.758 165.199 37.636 162.967 37.636ZM162.89 27.9955H155.736V47.9984H158.72V40.4205H162.89C166.199 40.4205 169.451 38.0255 169.451 34.2086C169.451 30.3925 166.199 27.9955 162.89 27.9955ZM123.881 45.7292C121.819 45.7292 120.092 44.0017 120.092 41.6312C120.092 39.2331 121.819 37.4812 123.881 37.4812C125.917 37.4812 127.516 39.2332 127.516 41.6312C127.516 44.0017 125.917 45.7292 123.881 45.7292ZM127.309 36.3208H127.206C126.536 35.5219 125.247 34.8001 123.624 34.8001C120.221 34.8001 117.102 37.7907 117.102 41.6312C117.102 45.4455 120.221 48.4098 123.624 48.4098C125.247 48.4098 126.536 47.6878 127.206 46.8636H127.309V47.8423C127.309 50.4466 125.917 51.8378 123.675 51.8378C121.845 51.8378 120.711 50.5234 120.247 49.4152L117.644 50.4977C118.391 52.3013 120.375 54.5189 123.675 54.5189C127.181 54.5189 130.145 52.4564 130.145 47.4296V35.2124H127.309L127.309 36.3208ZM132.208 47.9973H135.197V27.9944H132.208V47.9973ZM139.605 41.3987C139.528 38.7694 141.642 37.4293 143.162 37.4293C144.348 37.4293 145.353 38.0224 145.689 38.8725L139.605 41.3987ZM148.884 39.13C148.317 37.6101 146.59 34.8001 143.059 34.8001C139.553 34.8001 136.64 37.5581 136.64 41.605C136.64 45.42 139.528 48.4099 143.393 48.4099C146.512 48.4099 148.317 46.5031 149.065 45.3943L146.745 43.8475C145.972 44.9818 144.915 45.7293 143.393 45.7293C141.874 45.7293 140.79 45.0332 140.095 43.667L149.193 39.9039L148.884 39.13ZM76.3927 36.8881V39.775H83.3005C83.0943 41.3988 82.553 42.5843 81.728 43.4093C80.7225 44.4143 79.1501 45.523 76.3926 45.523C72.1394 45.523 68.8145 42.095 68.8145 37.8419C68.8145 33.5888 72.1394 30.1603 76.3926 30.1603C78.6867 30.1603 80.3618 31.0627 81.5992 32.2226L83.6361 30.1859C81.9085 28.5364 79.6148 27.2734 76.3926 27.2734C70.5663 27.2734 65.6689 32.0163 65.6689 37.8419C65.6689 43.6669 70.5663 48.4099 76.3926 48.4099C79.5368 48.4099 81.9086 47.3787 83.7642 45.4456C85.6717 43.5381 86.2648 40.8575 86.2648 38.692C86.2648 38.0226 86.2128 37.4039 86.1098 36.8881H76.3927ZM94.1192 45.7292C92.0566 45.7292 90.278 44.0279 90.278 41.605C90.278 39.1563 92.0566 37.4813 94.1192 37.4813C96.1809 37.4813 97.9596 39.1563 97.9596 41.605C97.9596 44.0279 96.1809 45.7292 94.1192 45.7292ZM94.1192 34.8001C90.3548 34.8001 87.2879 37.6612 87.2879 41.605C87.2879 45.523 90.3548 48.4099 94.1192 48.4099C97.8822 48.4099 100.95 45.523 100.95 41.605C100.95 37.6612 97.8822 34.8001 94.1192 34.8001ZM109.02 45.7292C106.959 45.7292 105.179 44.0279 105.179 41.605C105.179 39.1563 106.959 37.4813 109.02 37.4813C111.082 37.4813 112.86 39.1563 112.86 41.605C112.86 44.0279 111.082 45.7292 109.02 45.7292ZM109.02 34.8001C105.257 34.8001 102.19 37.6612 102.19 41.605C102.19 45.523 105.257 48.4099 109.02 48.4099C112.784 48.4099 115.851 45.523 115.851 41.605C115.851 37.6612 112.784 34.8001 109.02 34.8001Z" fill="white"/>
        <path d="M33.1462 31.0783L16.1133 49.1577C16.1139 49.1614 16.1152 49.1645 16.1158 49.1683C16.6382 51.1315 18.4313 52.5771 20.5594 52.5771C21.4101 52.5771 22.2088 52.3471 22.8938 51.9433L22.9482 51.9115L42.1219 40.8474L33.1462 31.0783Z" fill="#EB3131"/>
        <path d="M50.3801 27.9975L50.3638 27.9863L42.0859 23.1875L32.7598 31.4863L42.1183 40.8436L50.3525 36.0925C51.7961 35.3132 52.7761 33.7912 52.7761 32.0362C52.7761 30.2938 51.8094 28.7794 50.3801 27.9975Z" fill="#F6B60B"/>
        <path d="M16.1113 14.8438C16.0089 15.2213 15.9551 15.6169 15.9551 16.0276V47.9754C15.9551 48.3853 16.0083 48.7822 16.1119 49.1584L33.7329 31.5411L16.1113 14.8438Z" fill="#5778C5"/>
        <path d="M33.2725 32.0056L42.0893 23.1914L22.9371 12.0873C22.241 11.6703 21.4285 11.4297 20.5591 11.4297C18.431 11.4297 16.6354 12.8779 16.1129 14.8433C16.1123 14.8453 16.1123 14.8466 16.1123 14.8483L33.2725 32.0056Z" fill="#3BAD49"/>
        <path d="M75.832 15.6479H71.1646V16.8029H74.6621C74.5671 17.7454 74.192 18.4854 73.5596 19.0229C72.9271 19.5605 72.1196 19.8304 71.1646 19.8304C70.1171 19.8304 69.2296 19.4655 68.5023 18.7405C67.7896 18.0005 67.4272 17.0855 67.4272 15.983C67.4272 14.8806 67.7896 13.9656 68.5023 13.2256C69.2296 12.5007 70.1171 12.1381 71.1646 12.1381C71.7022 12.1381 72.2146 12.2306 72.6845 12.4332C73.1546 12.6356 73.532 12.9181 73.8271 13.2807L74.7146 12.3932C74.312 11.9356 73.8021 11.5857 73.1694 11.3306C72.537 11.0756 71.877 10.9532 71.1645 10.9532C69.767 10.9532 68.5822 11.4382 67.6146 12.4057C66.6471 13.3756 66.1621 14.5706 66.1621 15.983C66.1621 17.3954 66.6471 18.5931 67.6146 19.5606C68.5821 20.528 69.767 21.0131 71.1645 21.0131C72.6319 21.0131 73.802 20.543 74.702 19.588C75.4944 18.7931 75.8994 17.7181 75.8994 16.3732C75.8994 16.1456 75.872 15.9029 75.832 15.6479ZM77.6402 11.168V20.7979H83.2624V19.6154H78.8776V16.5605H82.8326V15.4055H78.8776V12.3531H83.2624V11.168L77.6402 11.168ZM91.1463 12.3531V11.168H84.5288V12.3531H87.2189V20.7979H88.4563V12.3531H91.1463ZM97.1373 11.168H95.8998V20.7979H97.1373V11.168ZM105.305 12.3531V11.168H98.6879V12.3531H101.378V20.7979H102.615V12.3531H105.305ZM117.793 12.4206C116.838 11.4381 115.668 10.9531 114.27 10.9531C112.87 10.9531 111.7 11.4381 110.745 12.4056C109.79 13.3606 109.32 14.5581 109.32 15.983C109.32 17.4078 109.79 18.6055 110.745 19.5605C111.7 20.5279 112.87 21.013 114.27 21.013C115.655 21.013 116.837 20.5279 117.793 19.5605C118.748 18.6055 119.217 17.408 119.217 15.983C119.217 14.5705 118.748 13.3755 117.793 12.4206ZM111.633 13.2256C112.345 12.5006 113.22 12.1381 114.27 12.1381C115.318 12.1381 116.193 12.5006 116.893 13.2256C117.605 13.938 117.955 14.8679 117.955 15.9829C117.955 17.1005 117.605 18.0279 116.893 18.7404C116.193 19.4654 115.318 19.8303 114.27 19.8303C113.22 19.8303 112.345 19.4654 111.633 18.7404C110.935 18.0129 110.585 17.1005 110.585 15.9829C110.585 14.8679 110.935 13.953 111.633 13.2256ZM122.157 14.8006L122.105 12.943H122.157L127.052 20.7978H128.345V11.1679H127.107V16.8028L127.16 18.6604H127.107L122.427 11.1679H120.92V20.7978H122.157V14.8006Z" fill="white" stroke="white" stroke-width="0.26666" stroke-miterlimit="10"/>
    </g>
    <defs>
        <clipPath id="clip0_129_8399">
            <rect width="216.001" height="64" fill="white"/>
        </clipPath>
    </defs>
</svg>
