<svg width="68" height="40" viewBox="0 0 68 40" fill="none" xmlns="http://www.w3.org/2000/svg">
<rect width="68" height="40" rx="4" fill="white"/>
<path d="M54.667 20.5C54.667 27.359 49.0901 33 42.167 33C35.308 33 29.667 27.359 29.667 20.5C29.667 13.641 35.2439 8 42.1029 8C49.0901 8 54.667 13.641 54.667 20.5Z" fill="#F9B50B"/>
<path d="M37.9359 20.5641C37.9359 19.6667 37.8077 18.7692 37.6795 17.9359H29.9872C30.0513 17.4872 30.1795 17.1026 30.3077 16.5897H37.1667C37.0385 16.141 36.8462 15.6923 36.6539 15.2436H30.8205C31.0128 14.7949 31.2692 14.4103 31.5256 13.8974H35.9487C35.6923 13.4487 35.3718 13 34.9872 12.5513H32.5513C32.9359 12.1026 33.3205 11.7179 33.8333 11.2692C31.6539 9.21795 28.7051 8 25.4359 8C18.641 8.19231 13 13.641 13 20.5C13 27.359 18.5769 33 25.5 33C28.7692 33 31.6538 31.718 33.8974 29.7308C34.3462 29.3462 34.7308 28.8974 35.1795 28.3846H32.6154C32.2949 28 31.9744 27.5513 31.718 27.1026H36.0769C36.3333 26.7179 36.5897 26.2692 36.7821 25.7564H30.9487C30.7564 25.3718 30.5641 24.9231 30.4359 24.4103H37.2949C37.6795 23.2564 37.9359 21.9744 37.9359 20.5641Z" fill="#C8191C"/>
<path d="M29.9241 23.7049L30.1164 22.5511C30.0523 22.5511 29.9241 22.6152 29.7958 22.6152C29.3471 22.6152 29.283 22.3588 29.3471 22.2306L29.7317 19.9229H30.4369L30.6292 18.6408H29.9882L30.1164 17.8716H28.7702C28.7702 17.8716 28.001 22.2306 28.001 22.7434C28.001 23.5126 28.4497 23.8972 29.0907 23.8972C29.4753 23.8972 29.7958 23.769 29.9241 23.7049Z" fill="white"/>
<path d="M30.3721 21.5897C30.3721 23.4487 31.6541 23.8974 32.6798 23.8974C33.6413 23.8974 34.09 23.7051 34.09 23.7051L34.3464 22.423C34.3464 22.423 33.6413 22.7435 32.9362 22.7435C31.4618 22.7435 31.7182 21.6538 31.7182 21.6538H34.4105C34.4105 21.6538 34.6028 20.8205 34.6028 20.4358C34.6028 19.6025 34.1541 18.5128 32.6798 18.5128C31.3977 18.4487 30.3721 19.923 30.3721 21.5897ZM32.6798 19.6666C33.3849 19.6666 33.2567 20.4999 33.2567 20.564H31.7823C31.8464 20.4999 31.9746 19.6666 32.6798 19.6666Z" fill="white"/>
<path d="M41.0757 23.7053L41.3321 22.231C41.3321 22.231 40.6911 22.5515 40.1783 22.5515C39.2809 22.5515 38.8321 21.8463 38.8321 21.013C38.8321 19.4104 39.6014 18.5771 40.5629 18.5771C41.2039 18.5771 41.7809 18.9617 41.7809 18.9617L41.9732 17.5515C41.9732 17.5515 41.2039 17.231 40.4347 17.231C38.8962 17.231 37.4219 18.5771 37.4219 21.0771C37.4219 22.7438 38.1911 23.8335 39.7937 23.8335C40.3706 23.8976 41.0757 23.7053 41.0757 23.7053Z" fill="white"/>
<path d="M22.6797 18.4482C21.7823 18.4482 21.0771 18.7047 21.0771 18.7047L20.8848 19.8585C20.8848 19.8585 21.4617 19.6021 22.3592 19.6021C22.8079 19.6021 23.1925 19.6662 23.1925 20.0508C23.1925 20.3072 23.1284 20.3713 23.1284 20.3713H22.5515C21.3976 20.3713 20.1797 20.82 20.1797 22.3585C20.1797 23.5764 20.9489 23.8329 21.4617 23.8329C22.3592 23.8329 22.8079 23.2559 22.872 23.2559L22.8079 23.7688H23.8976L24.4105 20.1149C24.4105 18.5123 23.1284 18.4482 22.6797 18.4482ZM22.9361 21.397C22.9361 21.5893 22.8079 22.679 22.0387 22.679C21.654 22.679 21.5258 22.3585 21.5258 22.1662C21.5258 21.8457 21.7181 21.397 22.7438 21.397C22.872 21.397 22.9361 21.397 22.9361 21.397Z" fill="white"/>
<path d="M25.6924 23.8335C26.0129 23.8335 27.6796 23.8976 27.6796 22.1027C27.6796 20.436 26.077 20.7566 26.077 20.1155C26.077 19.795 26.3334 19.6668 26.7822 19.6668C26.9745 19.6668 27.6796 19.7309 27.6796 19.7309L27.8719 18.513C27.8719 18.513 27.4232 18.3848 26.5898 18.3848C25.6283 18.3848 24.6027 18.7694 24.6027 20.1155C24.6027 21.654 26.2693 21.5258 26.2693 22.1027C26.2693 22.4873 25.8206 22.5514 25.5001 22.5514C24.9232 22.5514 24.2822 22.3591 24.2822 22.3591L24.0898 23.5771C24.218 23.7053 24.6027 23.8335 25.6924 23.8335Z" fill="white"/>
<path d="M52.1024 17.4233L51.846 19.2182C51.846 19.2182 51.3331 18.5772 50.5639 18.5772C49.346 18.5772 48.3203 20.0515 48.3203 21.7823C48.3203 22.8721 48.8331 23.9618 49.987 23.9618C50.7562 23.9618 51.269 23.449 51.269 23.449L51.2049 23.8977H52.5511L53.5126 17.5515L52.1024 17.4233ZM51.4613 20.8849C51.4613 21.59 51.1408 22.5515 50.3716 22.5515C49.9229 22.5515 49.6665 22.1669 49.6665 21.4618C49.6665 20.3721 50.1152 19.731 50.7562 19.731C51.2049 19.7951 51.4613 20.1156 51.4613 20.8849Z" fill="white"/>
<path d="M15.4363 23.7695L16.2056 19.0259L16.3338 23.7695H17.2312L18.962 19.0259L18.2569 23.7695H19.6671L20.7569 17.4233H18.5774L17.2312 21.3336L17.1671 17.4233H15.244L14.1543 23.7695H15.4363Z" fill="white"/>
<path d="M35.948 23.769C36.3326 21.5895 36.3967 19.7946 37.3582 20.1151C37.4865 19.2818 37.6788 18.8972 37.807 18.5767H37.5506C36.9736 18.5767 36.4608 19.3459 36.4608 19.3459L36.589 18.6408H35.307L34.4736 23.769H35.948Z" fill="white"/>
<path d="M44.1533 18.4482C43.2559 18.4482 42.5508 18.7047 42.5508 18.7047L42.3584 19.8585C42.3584 19.8585 42.9354 19.6021 43.8328 19.6021C44.2815 19.6021 44.6661 19.6662 44.6661 20.0508C44.6661 20.3072 44.602 20.3713 44.602 20.3713H44.0251C42.8713 20.3713 41.6533 20.82 41.6533 22.3585C41.6533 23.5764 42.4226 23.8329 42.9354 23.8329C43.8328 23.8329 44.2815 23.2559 44.3456 23.2559L44.2815 23.7688H45.4995L46.0123 20.1149C46.0123 18.5123 44.602 18.4482 44.1533 18.4482ZM44.4738 21.397C44.4738 21.5893 44.3456 22.679 43.5764 22.679C43.1918 22.679 43.0636 22.3585 43.0636 22.1662C43.0636 21.8457 43.2559 21.397 44.2815 21.397C44.4097 21.397 44.4097 21.397 44.4738 21.397Z" fill="white"/>
<path d="M47.0378 23.769C47.4225 21.5895 47.4866 19.7946 48.4481 20.1151C48.5763 19.2818 48.7686 18.8972 48.8968 18.5767H48.6404C48.0635 18.5767 47.5507 19.3459 47.5507 19.3459L47.6789 18.6408H46.3968L45.5635 23.769H47.0378Z" fill="white"/>
</svg>
