<svg width="68" height="40" viewBox="0 0 68 40" fill="none" xmlns="http://www.w3.org/2000/svg">
<rect width="68" height="40" rx="4" fill="white"/>
<path d="M52.8032 13.3335H44.0117C44.5238 16.2355 47.3405 18.9669 50.4133 18.9669H57.4124C57.4977 18.7108 57.4977 18.2841 57.4977 18.028C57.4977 15.4674 55.3638 13.3335 52.8032 13.3335Z" fill="url(#paint0_linear_41_2466)"/>
<path d="M44.7793 19.4795V26.5639H49.047V22.8083H52.8026C54.8511 22.8083 56.6436 21.3573 57.241 19.4795H44.7793Z" fill="#4FAD50"/>
<path d="M29.7578 13.3335V26.4781H33.5134C33.5134 26.4781 34.4523 26.4781 34.9644 25.5392C37.5251 20.5033 38.2933 18.9669 38.2933 18.9669H38.8054V26.4781H43.0731V13.3335H39.3175C39.3175 13.3335 38.3786 13.4189 37.8665 14.2724C35.7326 18.6255 34.5377 20.8447 34.5377 20.8447H34.0255V13.3335H29.7578Z" fill="#4FAD50"/>
<path d="M11.833 26.5635V13.4189H16.1007C16.1007 13.4189 17.2957 13.4189 17.9785 15.2967C19.6856 20.2473 19.8563 20.9301 19.8563 20.9301C19.8563 20.9301 20.1977 19.7352 21.7341 15.2967C22.417 13.4189 23.6119 13.4189 23.6119 13.4189H27.8797V26.5635H23.6119V19.4791H23.0998L20.7099 26.5635H18.8321L16.4422 19.4791H15.93V26.5635H11.833Z" fill="#4FAD50"/>
<defs>
<linearGradient id="paint0_linear_41_2466" x1="43.9965" y1="16.1906" x2="57.4675" y2="16.1906" gradientUnits="userSpaceOnUse">
<stop stop-color="#27B1E6"/>
<stop offset="1" stop-color="#148ACA"/>
</linearGradient>
</defs>
</svg>
