<svg width="80" height="80" viewBox="0 0 80 80" fill="none" xmlns="http://www.w3.org/2000/svg">
    <path d="M40 5L10 16C10 16 10 21.701 10 42.701C10 63.701 34.51 74.084 40 75C45.49 74.084 70 63.701 70 42.701C70 21.701 70 16 70 16L40 5Z" fill="#95C11F"/>
    <path fill-rule="evenodd" clip-rule="evenodd" d="M34.9442 46.3538L52.8644 28.4336L56.3999 31.9691L34.9442 53.4249L23.1504 41.6311L26.6859 38.0956L34.9442 46.3538Z" fill="white"/>
    <g opacity="0.08">
        <path d="M40 5L70 15.801C70 15.801 70 21.701 70 42.701C70 63.701 45.49 74.084 40 75V5Z" fill="black"/>
        <path d="M40 5L70 15.801C70 15.801 70 21.701 70 42.701C70 63.701 45.49 74.084 40 75V5Z" fill="black" fill-opacity="0.2"/>
        <path d="M40 5L70 15.801C70 15.801 70 21.701 70 42.701C70 63.701 45.49 74.084 40 75V5Z" fill="black" fill-opacity="0.2"/>
    </g>
</svg>
