<svg width="68" height="40" viewBox="0 0 68 40" fill="none" xmlns="http://www.w3.org/2000/svg">
<rect width="68" height="40" rx="4" fill="white"/>
<path d="M52.8611 13.5225H50.1521C49.3331 13.5225 48.7031 13.7745 48.3252 14.5935L43.1592 26.3744H46.8132C46.8132 26.3744 47.4432 24.7994 47.5692 24.4214C47.9472 24.4214 51.5381 24.4214 52.0421 24.4214C52.1681 24.8624 52.4831 26.3114 52.4831 26.3114H55.7591L52.8611 13.5225ZM48.5772 21.7754C48.8921 21.0194 49.9631 18.1844 49.9631 18.1844C49.9631 18.2474 50.2781 17.4284 50.4041 16.9874L50.6561 18.1214C50.6561 18.1214 51.3491 21.2084 51.4751 21.8384H48.5772V21.7754Z" fill="#3362AB"/>
<path d="M43.4115 22.1534C43.4115 24.7994 41.0175 26.5634 37.3005 26.5634C35.7255 26.5634 34.2135 26.2484 33.3945 25.8704L33.8985 22.9724L34.3395 23.1614C35.4735 23.6654 36.2295 23.8544 37.6155 23.8544C38.6235 23.8544 39.6945 23.4764 39.6945 22.5944C39.6945 22.0274 39.2535 21.6495 37.8675 21.0195C36.5445 20.3895 34.7805 19.3815 34.7805 17.5545C34.7805 15.0345 37.2375 13.3335 40.7025 13.3335C42.0255 13.3335 43.1595 13.5855 43.8525 13.9005L43.3485 16.6725L43.0965 16.4205C42.4665 16.1685 41.6475 15.9165 40.4505 15.9165C39.1275 15.9795 38.4975 16.5465 38.4975 17.0505C38.4975 17.6175 39.2535 18.0585 40.4505 18.6255C42.4665 19.5705 43.4115 20.6415 43.4115 22.1534Z" fill="#3362AB"/>
<path d="M12.667 13.6485L12.73 13.3965H18.148C18.904 13.3965 19.471 13.6485 19.66 14.4675L20.8569 20.1374C19.66 17.1135 16.888 14.6565 12.667 13.6485Z" fill="#F9B50B"/>
<path d="M28.4798 13.5225L22.9988 26.3114H19.2818L16.1318 15.6015C18.3998 17.0505 20.2898 19.3184 20.9828 20.8934L21.3608 22.2164L24.7628 13.4595H28.4798V13.5225Z" fill="#3362AB"/>
<path d="M29.9296 13.4595H33.3946L31.1896 26.3114H27.7246L29.9296 13.4595Z" fill="#3362AB"/>
</svg>
